<svg xmlns="http://www.w3.org/2000/svg" xmlns:xlink="http://www.w3.org/1999/xlink" width="1080" zoomAndPan="magnify" viewBox="0 0 810 809.999993" height="1080" preserveAspectRatio="xMidYMid meet" version="1.0"><defs><clipPath id="5e373d8440"><path d="M 105 31 L 748 31 L 748 718 L 105 718 Z M 105 31 " clip-rule="nonzero"/></clipPath><clipPath id="17fd0f9c8f"><path d="M 809.992188 54.351562 L 708.683594 781.578125 L 83.226562 694.449219 L 184.53125 -32.777344 Z M 809.992188 54.351562 " clip-rule="nonzero"/></clipPath><clipPath id="38c3160423"><path d="M 809.992188 54.351562 L 708.683594 781.578125 L 83.226562 694.449219 L 184.53125 -32.777344 Z M 809.992188 54.351562 " clip-rule="nonzero"/></clipPath><clipPath id="797c494df5"><path d="M 198 49 L 651 49 L 651 760 L 198 760 Z M 198 49 " clip-rule="nonzero"/></clipPath><clipPath id="d635a14418"><path d="M 809.992188 54.351562 L 708.683594 781.578125 L 83.226562 694.449219 L 184.53125 -32.777344 Z M 809.992188 54.351562 " clip-rule="nonzero"/></clipPath><clipPath id="4ac0d48d47"><path d="M 809.992188 54.351562 L 708.683594 781.578125 L 83.226562 694.449219 L 184.53125 -32.777344 Z M 809.992188 54.351562 " clip-rule="nonzero"/></clipPath><clipPath id="c87a98f6be"><path d="M 689.125 56.417969 L 590.492188 764.457031 L 118.960938 698.773438 L 217.589844 -9.269531 Z M 689.125 56.417969 " clip-rule="nonzero"/></clipPath><clipPath id="9bf4f91dd7"><path d="M 689.125 56.417969 L 590.542969 764.089844 L 119.011719 698.40625 L 217.589844 -9.269531 Z M 689.125 56.417969 " clip-rule="nonzero"/></clipPath><clipPath id="95c8eedf84"><path d="M 221 51 L 620 51 L 620 717 L 221 717 Z M 221 51 " clip-rule="nonzero"/></clipPath><clipPath id="084f8c4f02"><path d="M 809.992188 54.351562 L 708.683594 781.578125 L 83.226562 694.449219 L 184.53125 -32.777344 Z M 809.992188 54.351562 " clip-rule="nonzero"/></clipPath><clipPath id="b895d74b84"><path d="M 809.992188 54.351562 L 708.683594 781.578125 L 83.226562 694.449219 L 184.53125 -32.777344 Z M 809.992188 54.351562 " clip-rule="nonzero"/></clipPath><clipPath id="dee837e4d9"><path d="M 96 35 L 752 35 L 752 729 L 96 729 Z M 96 35 " clip-rule="nonzero"/></clipPath><clipPath id="c796eafce5"><path d="M 809.992188 54.351562 L 708.683594 781.578125 L 83.226562 694.449219 L 184.53125 -32.777344 Z M 809.992188 54.351562 " clip-rule="nonzero"/></clipPath><clipPath id="9faf07fdf4"><path d="M 809.992188 54.351562 L 708.683594 781.578125 L 83.226562 694.449219 L 184.53125 -32.777344 Z M 809.992188 54.351562 " clip-rule="nonzero"/></clipPath><clipPath id="9417aa4a66"><path d="M 809.855469 55.3125 L 709.21875 777.738281 L 82.640625 690.453125 L 183.277344 -31.972656 Z M 809.855469 55.3125 " clip-rule="nonzero"/></clipPath><clipPath id="92dcc383e8"><path d="M 809.855469 55.3125 L 709.21875 777.738281 L 83.695312 690.601562 L 184.332031 -31.824219 Z M 809.855469 55.3125 " clip-rule="nonzero"/></clipPath></defs><g clip-path="url(#5e373d8440)"><g clip-path="url(#17fd0f9c8f)"><g clip-path="url(#38c3160423)"><path fill="#fbda80" d="M 499.152344 277.230469 C 496.980469 287.015625 494.457031 296.726562 492.03125 306.453125 C 489.328125 317.328125 486.503906 328.167969 483.84375 339.054688 C 481.296875 349.425781 479.027344 359.871094 476.402344 370.21875 C 472.902344 384.019531 469.054688 397.726562 465.582031 411.523438 C 462.847656 422.386719 460.472656 433.34375 457.871094 444.246094 C 453.863281 461.050781 449.6875 477.816406 445.789062 494.648438 C 441.707031 512.257812 437.988281 529.953125 433.894531 547.5625 C 428.460938 570.949219 423.117188 594.359375 418.3125 617.886719 C 417.945312 619.695312 418.105469 621.519531 419.265625 623.164062 C 426.128906 632.925781 435.265625 638.980469 447.222656 640.542969 C 449.0625 640.710938 450.902344 640.992188 452.742188 641.039062 C 457.878906 641.167969 462.417969 640.242188 464.378906 634.527344 C 465.300781 631.839844 465.589844 629.085938 465.65625 626.339844 C 466.039062 609.324219 471.230469 593.667969 478.769531 578.625 C 483.765625 568.65625 488.339844 558.5 487.753906 546.980469 C 487.382812 539.738281 486.625 532.507812 485.957031 525.28125 C 485.03125 515.34375 485.601562 505.640625 491.285156 497.046875 C 497.6875 487.355469 501.109375 476.628906 502.921875 465.324219 C 505.671875 448.140625 505.121094 430.84375 504.394531 413.539062 C 503.964844 403.359375 503.890625 393.171875 507.8125 383.457031 C 510.875 375.886719 516.207031 369.78125 520.894531 363.265625 C 526.707031 355.203125 530.585938 346.371094 532.332031 336.574219 C 534.421875 324.824219 534.851562 312.953125 534.988281 301.050781 C 535.113281 290.386719 536.199219 279.929688 541.738281 270.46875 C 545.289062 264.40625 549.867188 259.101562 554.171875 253.589844 C 561.3125 244.453125 564.546875 234.230469 563.667969 222.582031 C 562.910156 212.695312 560.835938 203.003906 559.769531 193.167969 C 558.75 183.726562 558.140625 174.117188 563.628906 165.882812 C 572.273438 152.90625 578.816406 139.042969 583.28125 124.167969 C 587.613281 109.71875 591.597656 95.21875 590.621094 79.859375 C 590.222656 73.671875 590.277344 67.457031 590.175781 61.253906 C 590.15625 60.121094 589.679688 58.75 590.882812 57.949219 C 596.363281 54.300781 595.210938 48.554688 595.59375 43.300781 C 595.878906 39.316406 593.574219 37.832031 589.988281 37.089844 C 582.621094 35.566406 575.289062 33.839844 567.988281 32.007812 C 562.085938 30.523438 557.976562 32.910156 555.6875 38.605469 C 551.597656 48.792969 548.859375 59.402344 545.320312 69.753906 C 537.554688 92.53125 531.238281 115.699219 526.832031 139.378906 C 524.035156 154.433594 521.164062 169.480469 518.203125 184.507812 C 514.835938 201.609375 511.371094 218.695312 507.875 235.765625 C 505.035156 249.601562 502.210938 263.445312 499.152344 277.230469 Z M 366.085938 717.769531 C 371.894531 718.617188 373.089844 716.632812 371.332031 710.902344 C 367.195312 697.394531 363.253906 683.824219 358.972656 670.363281 C 353.136719 652.015625 348.148438 633.347656 339.355469 616.066406 C 335.871094 609.214844 332.484375 601.902344 325.054688 598.691406 C 318.414062 595.824219 312.820312 591.5 306.753906 587.847656 C 290.195312 577.886719 274.367188 566.980469 261.152344 552.644531 C 236.03125 525.40625 231.910156 493.265625 248.882812 460.5625 C 255.566406 447.683594 265.308594 436.882812 271.933594 423.847656 C 276.113281 415.648438 276.96875 407.09375 279.625 400.296875 C 280.644531 393.496094 280.734375 388.050781 280.570312 382.65625 C 280.429688 378.347656 279.816406 373.953125 278.703125 369.785156 C 273.609375 350.726562 268.378906 331.710938 263.539062 312.582031 C 255.554688 281.007812 244.175781 250.464844 234.148438 219.511719 C 226.847656 197.015625 218.488281 174.917969 209.679688 152.980469 C 208.019531 148.851562 205.621094 145.285156 202.203125 142.417969 C 201.140625 141.53125 199.773438 140.976562 199.746094 142.964844 C 199.652344 149.660156 195.5 155.078125 194.363281 161.511719 C 191.007812 180.515625 187.054688 199.398438 183.433594 218.351562 C 175.03125 262.355469 166.691406 306.371094 158.320312 350.378906 C 150.414062 391.917969 142.46875 433.453125 134.601562 475 C 126.910156 515.640625 119.398438 556.3125 111.542969 596.925781 C 110.109375 604.351562 109.820312 612.132812 106.113281 619.0625 C 105.542969 620.117188 105.585938 621.695312 105.820312 622.941406 C 107.089844 629.667969 110.472656 635.175781 115.699219 639.601562 C 123.898438 646.546875 133.488281 650.957031 143.464844 654.492188 C 161.910156 661.027344 181.007812 665.367188 199.828125 670.617188 C 222.226562 676.863281 244.714844 682.769531 267.160156 688.824219 C 294.453125 696.183594 321.746094 703.542969 349.039062 710.902344 C 350.308594 711.246094 351.84375 711.222656 352.625 712.382812 C 355.90625 717.238281 361.316406 717.066406 366.085938 717.769531 Z M 653.191406 47.445312 C 654.375 42.507812 654.363281 42.828125 659.230469 44.515625 C 665.546875 46.691406 669.257812 51.230469 672.867188 56.46875 C 685.457031 74.746094 691.863281 95.203125 694.796875 116.914062 C 698.0625 141.082031 704.230469 164.648438 709.246094 188.449219 C 715.59375 218.605469 721.347656 248.855469 726.367188 279.257812 C 729.9375 300.902344 732.851562 322.628906 735.625 344.375 C 737.785156 361.277344 739.671875 378.214844 741.511719 395.15625 C 743.496094 413.488281 745.3125 431.835938 747.148438 450.1875 C 747.460938 453.316406 747.480469 456.476562 747.699219 459.621094 C 747.804688 461.109375 747.117188 462.046875 746.035156 462.972656 C 728.746094 477.695312 711.59375 492.574219 694.207031 507.183594 C 638.078125 554.351562 582.304688 601.953125 525.449219 648.257812 C 523.296875 650.007812 521.097656 651.707031 518.84375 653.316406 C 518.058594 653.875 517.222656 655.101562 516.121094 654.316406 C 515.113281 653.601562 515.777344 652.351562 515.871094 651.355469 C 516.027344 649.777344 516.296875 648.210938 516.515625 646.640625 C 516.753906 645.476562 517 644.3125 517.238281 643.144531 C 517.703125 640.820312 518.851562 638.367188 518.441406 636.203125 C 517.972656 633.71875 514.671875 634.570312 512.78125 633.433594 C 509.191406 631.277344 508.183594 629.285156 510.527344 625.761719 C 513.441406 621.375 515.347656 616.46875 517.984375 611.933594 C 519.339844 609.601562 518.765625 605.984375 519.507812 602.960938 C 525.222656 579.476562 530.828125 555.964844 536.460938 532.464844 C 544.34375 499.589844 552.210938 466.71875 560.117188 433.851562 C 567.902344 401.484375 575.757812 369.125 583.546875 336.761719 C 590.925781 306.066406 598.242188 275.359375 605.632812 244.675781 C 611.941406 218.488281 618.355469 192.316406 624.664062 166.128906 C 634.203125 126.578125 643.695312 87.007812 653.191406 47.445312 " fill-opacity="1" fill-rule="nonzero"/></g></g></g><g clip-path="url(#797c494df5)"><g clip-path="url(#d635a14418)"><g clip-path="url(#4ac0d48d47)"><g clip-path="url(#c87a98f6be)"><g clip-path="url(#9bf4f91dd7)"><path fill="#a60b7c" d="M 556.960938 682.734375 C 555.597656 683.824219 554.804688 685.144531 555.445312 686.851562 C 556.316406 689.1875 561.179688 692.046875 563.640625 691.378906 C 566.109375 690.710938 568.316406 691.207031 570.636719 691.753906 C 575.238281 692.847656 580.007812 693.28125 584.199219 695.257812 C 590.144531 695.140625 595.464844 695.007812 599.34375 689.304688 C 602.511719 684.65625 600.242188 680.792969 599.152344 676.746094 C 597.859375 671.960938 593.539062 669.710938 588.722656 669.285156 C 575.648438 668.152344 566.273438 675.261719 556.960938 682.734375 Z M 562.210938 759.769531 C 567.09375 760.359375 571.367188 758.960938 575.050781 755.835938 C 580.117188 751.53125 581.144531 745.984375 580.929688 739.476562 C 580.648438 730.8125 577.339844 724.574219 569.660156 720.640625 C 563.992188 717.738281 557.945312 715.894531 551.78125 714.40625 C 542.941406 712.265625 534.304688 709.566406 525.996094 705.734375 C 519.511719 702.75 514.597656 697.734375 508.863281 693.796875 C 504.949219 691.105469 503.074219 687.886719 503.039062 683.3125 C 503.015625 680.804688 502.875 678.296875 502.773438 675.796875 C 502.722656 674.679688 503.371094 673.207031 501.804688 672.738281 C 500.503906 672.347656 499.667969 673.460938 498.8125 674.296875 C 494.949219 678.035156 493.890625 682.761719 493.609375 687.941406 C 493.144531 696.429688 495.257812 704.425781 498.066406 712.238281 C 502.0625 723.339844 506.726562 734.191406 515.886719 742.175781 C 526.894531 751.78125 539.996094 756.859375 554.324219 759.042969 C 556.953125 759.277344 559.59375 759.453125 562.210938 759.769531 Z M 380.75 718.605469 C 385.222656 711.640625 384.984375 704.261719 382.835938 696.601562 C 381.332031 691.210938 379.261719 685.742188 381.246094 680.046875 C 382.867188 675.398438 383.519531 670.824219 383.441406 665.796875 C 383.347656 659.660156 382.078125 654.34375 378.390625 649.597656 C 372.460938 641.960938 368.472656 633.0625 362.441406 625.5 C 361.851562 624.761719 361.664062 623.910156 361.570312 622.941406 C 360.835938 615.410156 360.019531 607.890625 359.222656 600.371094 C 358.175781 590.4375 354.355469 582.304688 345.332031 576.929688 C 339.652344 573.542969 333.617188 571.472656 327.222656 570.417969 C 323.5 569.804688 320.574219 568.25 317.980469 565.578125 C 312.320312 559.742188 307.296875 553.582031 305.167969 545.480469 C 303.417969 538.84375 299.109375 534.457031 292.558594 532.460938 C 286.089844 530.492188 280.121094 527.890625 274.503906 523.835938 C 267.992188 519.140625 262.914062 503.046875 265.4375 495.894531 C 267.539062 489.953125 269.9375 484.019531 273.925781 478.996094 C 279.015625 472.59375 283.742188 466.011719 287.617188 458.753906 C 291.0625 452.320312 291.941406 445.722656 291.367188 438.566406 C 290.921875 433.066406 289.050781 427.679688 289.308594 422.273438 C 289.710938 413.890625 290.75 405.925781 296.007812 398.242188 C 303.488281 387.332031 307 374.597656 306.046875 360.875 C 305.234375 349.070312 303.15625 337.980469 294.601562 329.027344 C 292.332031 326.648438 290.363281 323.953125 288.433594 321.28125 C 280.558594 310.363281 274.402344 298.90625 278.617188 281.34375 C 280.046875 275.960938 279.21875 267.050781 277.800781 259.707031 C 274.589844 243.078125 267.175781 228.628906 255.410156 216.457031 C 250.335938 211.214844 246.824219 205.089844 244.9375 198.101562 C 243.363281 192.269531 244.054688 186.179688 243.292969 180.207031 C 240.753906 160.304688 229.351562 146.925781 212.828125 137.085938 C 210.132812 135.484375 207.105469 134.40625 204.171875 133.226562 C 201.414062 132.117188 199.84375 134.3125 198.625 135.980469 C 197.382812 137.683594 199.488281 138.734375 200.542969 139.664062 C 202.605469 141.492188 204.539062 143.09375 205.464844 146.039062 C 217.609375 184.800781 230.132812 223.433594 242.140625 262.230469 C 254.253906 301.382812 266.488281 340.503906 276.464844 380.285156 C 279.65625 393.007812 279.277344 405.046875 271.796875 416.242188 C 261.5625 431.554688 252.179688 447.332031 245.367188 464.515625 C 241.582031 474.0625 237.703125 483.621094 235.417969 493.613281 C 231.015625 512.941406 235.292969 530.71875 246.503906 546.921875 C 258.890625 564.8125 275.875 577.316406 294.660156 587.632812 C 304.109375 592.820312 313.832031 597.351562 324.300781 600.304688 C 333.199219 602.8125 337.386719 610.230469 340.273438 618.191406 C 344.441406 629.699219 348.214844 641.359375 351.964844 653.019531 C 358.488281 673.320312 363.539062 694.121094 372.949219 713.417969 C 373.371094 714.292969 373.753906 715.140625 373.351562 716.058594 C 372.1875 718.722656 373.164062 720.304688 375.742188 721.28125 C 378.5 722.324219 379.613281 720.375 380.75 718.605469 Z M 594.070312 172.882812 C 600.210938 159.515625 606.558594 146.246094 612.691406 132.867188 C 614.136719 129.707031 614.28125 126.140625 614.277344 122.738281 C 614.265625 108.5 615.4375 94.210938 613.8125 80.046875 C 612.785156 71.03125 615.804688 63.546875 620.496094 56.53125 C 626.242188 47.9375 634.386719 47.644531 641.304688 55.332031 C 644.597656 58.992188 647.03125 63.226562 649.542969 67.425781 C 650.722656 69.398438 650.625 71.433594 650.324219 73.554688 C 645.347656 108.351562 639.992188 143.09375 634 177.71875 C 632.351562 187.273438 628.996094 196.53125 626.476562 205.9375 C 625.253906 210.519531 624.320312 215.167969 623.125 219.769531 C 620.152344 231.246094 617.898438 242.902344 615.207031 254.453125 C 612.277344 267.03125 609.148438 279.566406 606.152344 292.125 C 603.621094 302.761719 601.230469 313.441406 598.628906 324.0625 C 596.054688 334.550781 593.269531 344.988281 590.617188 355.457031 C 588.21875 364.898438 585.894531 374.371094 583.476562 383.808594 C 580.828125 394.132812 578.144531 404.453125 575.417969 414.757812 C 574.234375 419.214844 573.214844 423.703125 572.035156 428.160156 C 568.175781 442.664062 564.960938 457.335938 561.375 471.914062 C 557.539062 487.519531 553.460938 503.066406 549.699219 518.6875 C 546.890625 530.347656 544.734375 542.164062 541.726562 553.765625 C 537.152344 571.363281 534.121094 589.355469 528.082031 606.601562 C 525.839844 613.007812 524.863281 619.875 523.542969 626.578125 C 522.863281 630.007812 521.914062 633.25 519.675781 635.964844 C 518.25 637.703125 518.214844 639.894531 517.488281 641.855469 C 517.097656 642.921875 517.023438 644.46875 515.367188 644.226562 C 508.671875 643.261719 501.601562 643.90625 495.894531 638.953125 C 493.015625 636.464844 491.484375 633.921875 492.523438 630.019531 C 493.542969 626.214844 493.617188 622.171875 495.566406 618.585938 C 496.191406 617.457031 496.707031 615.835938 495.609375 614.851562 C 493.402344 612.875 493.878906 610.28125 494.3125 608.183594 C 495.570312 602.128906 495.667969 595.976562 499.808594 590.347656 C 502.570312 586.59375 504.480469 581.445312 505.679688 576.480469 C 506.410156 573.484375 506.054688 570.226562 508.679688 567.695312 C 509.796875 566.613281 509.007812 564.371094 508.683594 562.726562 C 506.085938 549.769531 505.40625 536.855469 508.953125 523.929688 C 510.070312 519.839844 512.039062 516.105469 513.359375 512.105469 C 515.707031 504.988281 518.214844 497.902344 520.246094 490.6875 C 522.296875 483.417969 525.269531 476.570312 528.789062 469.953125 C 534.574219 459.066406 536.136719 447.203125 537.253906 435.203125 C 538.441406 422.445312 538.398438 409.625 538.972656 396.835938 C 539.078125 394.535156 539.691406 392.003906 535.429688 393.207031 C 532.761719 393.960938 529.085938 388.542969 528.996094 385.511719 C 528.519531 369.609375 532.109375 354.039062 532.609375 338.242188 C 532.757812 333.421875 535.441406 329.847656 537.066406 325.816406 C 538.066406 323.328125 541.613281 322.359375 544.390625 323.070312 C 546.871094 323.695312 547.039062 326.359375 547.050781 328.664062 C 547.054688 329.40625 546.683594 330.230469 547.566406 330.84375 C 549.953125 329.851562 550.019531 327.273438 551.121094 325.433594 C 558.078125 313.839844 566.230469 303.003906 572.460938 290.9375 C 576.6875 282.769531 581.667969 274.898438 584.378906 266.109375 C 586.59375 258.945312 587.0625 251.347656 587.253906 243.78125 C 587.507812 233.839844 585.21875 224.132812 584.980469 214.253906 C 584.617188 199.71875 588.046875 186.003906 594.070312 172.882812 " fill-opacity="1" fill-rule="nonzero"/></g></g></g></g></g><g clip-path="url(#95c8eedf84)"><g clip-path="url(#084f8c4f02)"><g clip-path="url(#b895d74b84)"><path fill="#c48000" d="M 383.347656 544.476562 C 385.527344 548.191406 392.507812 551.285156 396.78125 550.480469 C 402.179688 549.476562 405.296875 546.058594 405.976562 541.304688 C 406.910156 535.789062 405.734375 531.679688 403.945312 527.648438 C 403.175781 525.914062 402.046875 525.050781 400.234375 525.871094 C 394.195312 528.609375 388.519531 531.929688 383.945312 536.808594 C 381.804688 539.089844 381.769531 541.808594 383.347656 544.476562 Z M 382.222656 511.964844 C 388.503906 499.96875 397.460938 489.894531 407.894531 481.21875 C 410.246094 479.265625 412.355469 477.109375 414.152344 474.660156 C 419.417969 467.476562 417.777344 456.449219 410.6875 452.023438 C 406.804688 449.597656 402.308594 449.4375 398.046875 450.136719 C 388.613281 451.691406 381.449219 457.382812 375.453125 464.375 C 367.773438 473.335938 364.546875 484.296875 362.394531 497.554688 C 361.371094 505.476562 361.714844 515.210938 363.375 524.855469 C 364.0625 528.878906 365.53125 532.78125 369.21875 535.265625 C 371.902344 537.078125 373.597656 536.597656 373.984375 533.550781 C 374.980469 525.664062 378.691406 518.726562 382.222656 511.964844 Z M 387.167969 715.292969 C 395.492188 709.792969 401.210938 701.851562 406.871094 693.953125 C 409.917969 689.695312 412.460938 684.835938 412.890625 679.472656 C 414.023438 665.480469 409.890625 652.832031 402.132812 641.328125 C 400.609375 639.066406 398.585938 636.988281 396.394531 635.359375 C 387.105469 628.472656 384.605469 618.558594 384.503906 607.941406 C 384.425781 599.28125 384.648438 590.605469 382.210938 582.277344 C 378.816406 570.660156 372.015625 561.496094 360.664062 556.445312 C 355.734375 554.257812 350.457031 552.859375 345.546875 550.628906 C 341.296875 548.703125 337.285156 546.476562 336.902344 540.648438 C 336.601562 536.132812 336.320312 531.550781 335.066406 527.085938 C 332.441406 517.777344 328.292969 509.644531 319.503906 504.683594 C 314.054688 501.609375 309.484375 497.453125 305.128906 493.019531 C 302.765625 490.617188 302.324219 488.265625 304.710938 485.382812 C 307.804688 481.632812 311.164062 477.894531 313.308594 473.601562 C 320.152344 459.917969 320.578125 445.582031 316.128906 431.066406 C 314.105469 424.464844 313.382812 418.59375 317.828125 412.089844 C 325.109375 401.457031 327.152344 388.707031 329.570312 375.945312 C 331.53125 368.195312 331.105469 360.011719 329.773438 352.023438 C 327 335.371094 320.539062 319.941406 311.847656 305.582031 C 306.359375 296.523438 304.441406 287.136719 305.101562 276.726562 C 305.484375 270.785156 304.972656 264.691406 304.132812 258.773438 C 301.808594 242.441406 295.171875 227.898438 285.636719 214.457031 C 279.792969 206.230469 274.183594 197.714844 272.671875 187.3125 C 271.898438 181.957031 270.511719 176.726562 267.550781 172.132812 C 260.429688 161.09375 250.519531 153.101562 238.917969 147.300781 C 234.125 144.910156 228.757812 143.640625 223.640625 141.921875 C 222.945312 141.691406 222.027344 141.421875 221.453125 142.175781 C 221.007812 142.757812 221.113281 143.5 221.730469 143.925781 C 225.246094 146.363281 226.667969 150.386719 228.996094 153.683594 C 237.65625 165.984375 241.359375 180.121094 242.398438 194.828125 C 243.128906 205.234375 245.605469 214.367188 253.171875 222.007812 C 258.839844 227.722656 263.480469 234.367188 267.898438 241.121094 C 275.339844 252.515625 275.15625 265.667969 276.152344 278.433594 C 276.839844 287.167969 274.660156 296.035156 277.433594 304.726562 C 282.003906 319.027344 289.933594 331.417969 299.101562 343.09375 C 300.550781 344.9375 301.800781 346.835938 301.90625 349.054688 C 302.210938 355.097656 302.546875 361.179688 302.222656 367.203125 C 301.59375 378.71875 296.0625 388.5 290.5 398.238281 C 286.464844 405.296875 282 412.28125 283.800781 421.097656 C 284.5625 424.820312 285.359375 428.550781 285.777344 432.3125 C 286.660156 440.195312 286.792969 447.871094 283.5625 455.578125 C 280.457031 462.96875 275.667969 469.195312 271.769531 476.015625 C 268.648438 481.46875 264.214844 486.347656 263.007812 492.671875 C 260.792969 504.296875 264.839844 514.160156 272.5 522.773438 C 277.324219 528.214844 283.667969 531.488281 290.035156 534.566406 C 296.167969 537.527344 300.183594 541.625 300.917969 548.742188 C 301.574219 555.082031 303.425781 561.09375 307.425781 566.316406 C 314.921875 576.097656 324.699219 582.183594 336.585938 585.304688 C 341.234375 586.515625 346.023438 588.0625 350.066406 590.554688 C 356.820312 594.722656 358.101562 602.328125 359.269531 609.382812 C 360.324219 615.710938 360.601562 622.214844 362.808594 628.269531 C 364.359375 632.53125 366.113281 636.996094 368.90625 640.460938 C 371.941406 644.230469 375.308594 647.824219 378.246094 651.683594 C 382.277344 656.96875 384.867188 663.054688 382.363281 669.785156 C 379.175781 678.359375 379.632812 686.785156 382.273438 695.289062 C 382.636719 696.4375 382.75 697.570312 382.894531 698.746094 C 383.425781 703.25 382.996094 707.691406 382.300781 712.125 C 382.0625 713.671875 382.316406 715.035156 383.894531 715.816406 C 385.117188 716.417969 386.082031 716.011719 387.167969 715.292969 Z M 560.640625 216.566406 C 560 204.910156 557.890625 193.671875 553.035156 182.933594 C 549.285156 174.636719 549.902344 166.222656 552.582031 157.488281 C 554.445312 151.425781 557.285156 146.546875 561.707031 142.160156 C 565.539062 138.359375 568.707031 133.894531 572.375 129.917969 C 586.496094 114.574219 592.410156 96.425781 591.285156 75.769531 C 590.984375 70.335938 590.3125 64.972656 588.738281 59.769531 C 587.828125 56.761719 588.957031 55.070312 591.519531 53.699219 C 597.671875 50.398438 609.347656 52.03125 614.207031 56.945312 C 615.414062 58.171875 615.679688 59.703125 615.898438 61.273438 C 618.425781 79.105469 618.851562 97.074219 619.285156 115.023438 C 619.496094 123.691406 617.808594 132.796875 612.734375 139.28125 C 604.703125 149.542969 602.167969 161.90625 596.625 173.046875 C 593.796875 178.738281 592.816406 185.277344 592.101562 191.691406 C 591.609375 196.027344 591.402344 200.433594 590.402344 204.652344 C 588.367188 213.191406 590.070312 221.652344 590.152344 230.160156 C 590.242188 239.34375 590.652344 248.515625 587.722656 257.574219 C 585.769531 263.628906 584.625 269.96875 582.4375 275.996094 C 579.136719 285.117188 573.398438 292.820312 568.332031 300.949219 C 563.042969 309.445312 561.511719 319.027344 561.558594 328.917969 C 561.617188 341.375 564.851562 353.664062 562.875 366.261719 C 560.96875 378.425781 557.503906 389.6875 549.136719 399.117188 C 545.558594 403.152344 543.140625 407.949219 542.136719 413.378906 C 541.734375 415.539062 540.292969 417.292969 539.851562 419.578125 C 538.21875 428.109375 538.316406 436.542969 539.976562 445.042969 C 540.695312 448.722656 539.589844 452.40625 539.1875 456.070312 C 537.960938 467.195312 535.449219 478.003906 530.421875 488.109375 C 528.273438 492.410156 524.742188 495.6875 522.015625 499.558594 C 516.882812 506.84375 513.8125 514.347656 513.90625 523.875 C 514.027344 535.984375 516.378906 547.914062 515.703125 560.046875 C 515.359375 566.207031 513.582031 571.886719 511.601562 577.554688 C 508.617188 586.101562 502.832031 593.359375 499.875 601.882812 C 498.550781 605.707031 496.832031 609.472656 497.214844 613.980469 C 497.816406 621.148438 495.304688 627.875 492.375 634.378906 C 490.585938 638.367188 487.882812 639.984375 483.523438 638.605469 C 481.914062 638.09375 480.140625 638.089844 478.542969 637.867188 C 470.558594 637.710938 463.75 634.898438 458.304688 629.207031 C 453.496094 624.167969 452.507812 618.417969 454.789062 611.671875 C 457.441406 603.824219 461.292969 596.703125 466.472656 590.363281 C 470.945312 584.886719 471.441406 578.3125 472.613281 571.871094 C 474.734375 560.207031 478.503906 548.804688 478.359375 536.773438 C 478.320312 533.351562 478.675781 529.816406 477.972656 526.523438 C 475.855469 516.605469 479.058594 507.8125 482.980469 499.078125 C 490.207031 482.996094 497.453125 466.898438 502.5625 450 C 505.265625 441.050781 503.21875 431.925781 501.539062 423.023438 C 500.09375 415.382812 498.550781 407.746094 497.726562 400.027344 C 496.941406 392.605469 500.011719 385.785156 502.304688 378.917969 C 504.769531 371.546875 510.167969 365.914062 514.152344 359.4375 C 522.230469 346.308594 526.066406 332.03125 526.058594 316.652344 C 526.046875 309.273438 524.722656 301.890625 525.664062 294.519531 C 527.609375 279.363281 532.980469 265.90625 544.710938 255.382812 C 556.183594 245.085938 561.492188 232.066406 560.640625 216.566406 " fill-opacity="1" fill-rule="nonzero"/></g></g></g><g clip-path="url(#dee837e4d9)"><g clip-path="url(#c796eafce5)"><g clip-path="url(#9faf07fdf4)"><g clip-path="url(#9417aa4a66)"><g clip-path="url(#92dcc383e8)"><path fill="#f7b60c" d="M 489.507812 542.414062 C 487.191406 545.074219 487.75 548.0625 489.152344 550.886719 C 489.953125 552.511719 491.105469 553.988281 492.234375 555.433594 C 494.34375 558.152344 496.285156 557.785156 498.050781 554.996094 C 499.609375 552.535156 500.542969 549.832031 501.457031 546.832031 C 501.269531 544.839844 501.152344 542.621094 500.839844 540.433594 C 500.675781 539.277344 499.738281 538.632812 498.589844 538.585938 C 494.976562 538.441406 491.875 539.6875 489.507812 542.414062 Z M 295.117188 429.628906 C 295.851562 432.773438 297.402344 435.722656 298.527344 438.785156 C 299.855469 442.410156 303.171875 443.289062 306.289062 444.015625 C 308.324219 444.492188 309.695312 443.007812 309.898438 440.085938 C 309.339844 433.910156 306.886719 427.617188 303.855469 421.5625 C 303.035156 419.914062 301.1875 420.203125 299.621094 420.925781 C 296.152344 422.539062 294.214844 425.761719 295.117188 429.628906 Z M 301.621094 292.65625 C 300.890625 289.691406 299.003906 288.875 296.28125 289.597656 C 291.148438 290.960938 287.628906 294.417969 284.832031 298.730469 C 283.769531 300.371094 284.460938 301.589844 285.792969 302.835938 C 288.398438 305.253906 291.78125 306.089844 294.824219 307.59375 C 299.410156 309.871094 302.398438 308.148438 303.035156 302.484375 C 303.867188 299.449219 302.472656 296.097656 301.621094 292.65625 Z M 401.394531 661.425781 C 399.191406 661.265625 397.742188 663.285156 396.375 664.886719 C 395.179688 666.289062 395.21875 668.074219 395.097656 669.761719 C 394.9375 671.859375 394.9375 673.96875 394.875 675.914062 C 394.640625 676.707031 394.378906 677.328125 394.273438 677.96875 C 393.140625 684.847656 394.851562 687.929688 400.507812 689.457031 C 402.628906 690.027344 404.40625 689.625 404.8125 687.371094 C 406.101562 680.226562 406.730469 673.019531 404.636719 665.925781 C 404.117188 664.144531 403.6875 661.59375 401.394531 661.425781 Z M 475.402344 606.542969 C 468.410156 611.53125 468.261719 617.996094 475.144531 623.195312 C 476.980469 624.582031 478.863281 624.929688 480.835938 623.128906 C 485.058594 619.273438 487.78125 614.625 488.898438 609.027344 C 489.902344 603.871094 488.597656 602.457031 483.414062 603.355469 C 480.550781 603.847656 477.832031 604.808594 475.402344 606.542969 Z M 606.398438 119.03125 C 610.425781 114.179688 612.394531 108.425781 613.929688 101.734375 C 614.277344 99.386719 613.304688 97.902344 610.71875 97.640625 C 605.625 97.113281 600.105469 100.597656 597.589844 105.90625 C 595.214844 110.925781 596.121094 115.113281 600.417969 119.289062 C 602.535156 121.347656 604.445312 121.375 606.398438 119.03125 Z M 286.878906 506.5625 C 287.921875 503.046875 289.652344 499.710938 289.652344 496.613281 C 290.167969 492.960938 290.875 490.011719 289.957031 486.960938 C 289.550781 485.601562 289.753906 483.859375 288.148438 483.285156 C 286.363281 482.648438 285.195312 484.132812 284.09375 485.164062 C 279.640625 489.332031 276.742188 494.609375 273.667969 499.78125 C 271.722656 503.054688 273.4375 504.949219 275.878906 506.671875 C 280.269531 509.777344 283.871094 510.335938 285.898438 508.238281 C 286.339844 507.785156 286.699219 507.167969 286.878906 506.5625 Z M 519.378906 473.03125 C 524.269531 468.203125 528.210938 462.699219 529.515625 455.722656 C 530.550781 450.117188 529.460938 449.085938 523.832031 450.28125 C 518.511719 451.414062 514.808594 454.894531 511.296875 458.71875 C 506.890625 463.527344 506.730469 467.039062 510.78125 472.273438 C 513.554688 475.847656 516.121094 476.25 519.378906 473.03125 Z M 275.980469 216.65625 C 274.9375 207.148438 269.59375 200.167969 262.484375 194.328125 C 260.007812 192.289062 257.113281 193.078125 253.867188 196.417969 C 251.746094 198.589844 250.289062 200.992188 253.117188 203.503906 C 257.085938 207.035156 259.871094 211.542969 263.417969 215.398438 C 266.175781 218.402344 269.335938 221 273.570312 222.617188 C 276.648438 221.726562 276.246094 219.042969 275.980469 216.65625 Z M 554.308594 285.367188 C 557.015625 288.136719 559.902344 288.257812 562.519531 285.417969 C 567.703125 279.792969 570.683594 273.015625 572.207031 266.914062 C 573.277344 259.597656 571.585938 258.308594 565.679688 260.394531 C 563.117188 261.296875 560.996094 262.777344 559.300781 264.855469 C 557.472656 267.097656 555.761719 269.421875 553.886719 271.625 C 549.0625 277.292969 549.125 280.042969 554.308594 285.367188 Z M 322.480469 363.609375 C 321.320312 359.878906 319.707031 359.296875 316.277344 361.410156 C 310.386719 365.027344 306.253906 369.9375 305.351562 376.917969 C 304.84375 379.292969 304.539062 381.460938 306.511719 383.292969 C 309.613281 386.179688 313.441406 387.53125 317.40625 388.527344 C 319.046875 388.941406 320.898438 388.511719 321.253906 386.644531 C 322.714844 379.03125 324.914062 371.414062 322.480469 363.609375 Z M 352.957031 580.507812 C 352.949219 576.417969 352.210938 572.714844 348.464844 570.160156 C 344.78125 567.648438 341.371094 564.71875 337.613281 562.316406 C 332.867188 559.289062 330.054688 559.875 326.359375 564.089844 C 323.082031 567.824219 323.285156 570.035156 327.417969 572.75 C 331.238281 575.253906 335.121094 577.671875 339.109375 579.894531 C 342.054688 581.539062 345.214844 582.808594 347.066406 583.675781 C 351.386719 584.78125 352.96875 583.671875 352.957031 580.507812 Z M 574.714844 169.679688 C 576.351562 167.339844 577.417969 164.621094 579.667969 162.679688 C 583.855469 159.070312 585.640625 154.128906 586.914062 148.960938 C 587.546875 146.382812 586.539062 144.882812 584.773438 144.800781 C 578.941406 144.363281 574.851562 146.3125 570.886719 148.8125 C 561.902344 154.472656 561.023438 162.597656 568.605469 170.074219 C 570.835938 172.269531 572.722656 172.507812 574.714844 169.679688 Z M 464.832031 678.167969 C 465.042969 683.140625 467.699219 685.089844 471.535156 686.648438 C 472.511719 687.039062 473.453125 687.519531 474.410156 687.941406 C 479.957031 690.386719 482.164062 689.078125 482.738281 683.007812 C 482.773438 682.613281 482.789062 682.222656 482.820312 681.824219 C 483.214844 675.140625 483.316406 668.488281 481.4375 661.953125 C 480.613281 659.082031 479.121094 658.519531 476.429688 659.570312 C 467.691406 662.984375 464.4375 668.757812 464.832031 678.167969 Z M 341.316406 494.320312 C 343.335938 487.816406 348.210938 482.125 346.347656 474.527344 C 345.140625 469.605469 344.339844 468.875 339.421875 469.832031 C 335.886719 470.523438 333.128906 472.410156 330.722656 474.933594 C 328.148438 477.636719 326.796875 480.992188 325.421875 484.421875 C 323.445312 489.347656 323.898438 491.703125 328.472656 494.140625 C 330.890625 495.433594 333.527344 496.316406 336.066406 497.386719 C 338.734375 497.773438 340.464844 497.066406 341.316406 494.320312 Z M 525.636719 358.816406 C 525.675781 366.992188 527.382812 374.722656 532.972656 381.113281 C 535.492188 384 537.492188 383.894531 539.480469 380.628906 C 541.75 376.902344 542.832031 372.691406 543.925781 368.550781 C 543.960938 367.980469 544.046875 367.453125 543.996094 366.929688 C 543.667969 363.402344 543.429688 359.863281 542.925781 356.363281 C 542.171875 351.148438 540.355469 350.027344 535.023438 351.175781 C 529.28125 352.40625 525.621094 355.15625 525.636719 358.816406 Z M 369.105469 242.894531 C 369.371094 252.179688 372.992188 256.839844 382.410156 257.234375 C 387.445312 257.445312 389.292969 255.921875 390.078125 250.570312 C 390.410156 248.972656 390.285156 247.078125 389.859375 245.089844 C 388.605469 239.15625 385.554688 233.886719 383.882812 228.097656 C 382.878906 224.617188 381.074219 224.035156 378.46875 226.566406 C 373.875 231.039062 368.875 235.078125 369.105469 242.894531 Z M 346.859375 432.007812 C 346.9375 434.335938 348.113281 435.789062 349.953125 436.726562 C 352.007812 437.777344 354.160156 438.757812 356.386719 439.34375 C 359.535156 440.175781 361.273438 438.800781 361.414062 435.503906 C 361.691406 428.894531 360.445312 422.570312 357.105469 416.796875 C 355.003906 413.15625 352.089844 410.371094 348.328125 409.300781 C 343.816406 408.792969 340.765625 410.644531 338.175781 413.429688 C 335.398438 416.414062 335.847656 418.292969 339.15625 420.695312 C 343.023438 423.5 346.679688 426.675781 346.859375 432.007812 Z M 231.15625 651.003906 C 232.417969 654.476562 234.074219 657.578125 238.195312 658.230469 C 242.203125 658.859375 244.175781 656.160156 245.992188 653.308594 C 249.691406 647.503906 254.132812 642.980469 261.261719 641.160156 C 271.570312 638.523438 276.3125 630.757812 277.941406 620.75 C 278.902344 614.84375 278.039062 608.988281 277.03125 603.203125 C 276.136719 598.058594 275.085938 592.871094 272.15625 588.386719 C 271.140625 586.820312 269.953125 584.613281 267.480469 586.277344 C 264.648438 588.195312 262.15625 590.726562 262.785156 594.382812 C 263.507812 598.570312 262.484375 602.527344 262.269531 606.351562 C 262 608.289062 261.671875 609.980469 261.546875 611.695312 C 261.210938 616.234375 259.101562 618.832031 254.371094 619.660156 C 250.082031 620.414062 245.992188 622.1875 242.488281 624.808594 C 230.988281 633.429688 227.316406 640.421875 231.15625 651.003906 Z M 203.292969 556.457031 C 191.105469 565.507812 183.535156 577.621094 180.75 596.097656 C 179.175781 603.878906 182.679688 614.15625 185.816406 624.433594 C 186.492188 626.621094 188.789062 628.035156 191.082031 628.074219 C 193.757812 628.109375 193.339844 625.472656 193.5 623.835938 C 194.136719 617.222656 196.351562 610.960938 197.644531 604.496094 C 200.332031 591.066406 205.34375 578.878906 217.347656 570.75 C 220.757812 568.441406 223.199219 565.160156 224.46875 561.066406 C 227.835938 550.214844 225.777344 539.578125 223.15625 529.015625 C 222.53125 526.503906 221.855469 523 218.320312 523.113281 C 214.996094 523.214844 213.898438 526.480469 212.570312 529.027344 C 212.214844 529.695312 212.222656 530.5625 212.117188 531.347656 C 211.617188 535.277344 210.671875 539.210938 210.746094 543.128906 C 210.859375 549.21875 208.023438 552.945312 203.292969 556.457031 Z M 625.011719 532.40625 C 627.199219 524.863281 626.050781 517.367188 624.402344 509.875 C 623.144531 504.148438 620.46875 498.507812 620.820312 492.695312 C 621.328125 484.394531 621.132812 476.246094 619.9375 468.050781 C 618.261719 456.5625 613.089844 446.875 605.203125 438.523438 C 603.902344 437.136719 602.390625 436.136719 600.332031 436.40625 C 593.242188 437.300781 589.078125 444.773438 592.109375 451.191406 C 592.894531 452.859375 593.742188 454.492188 594.542969 456.15625 C 599.054688 465.59375 601.859375 475.328125 599.683594 485.914062 C 598.773438 490.34375 598.46875 494.769531 599.117188 499.273438 C 601.179688 513.652344 606.273438 526.246094 619.292969 534.304688 C 622.699219 536.414062 623.933594 536.140625 625.011719 532.40625 Z M 629.664062 400 C 628.15625 409.46875 629.410156 417.878906 633.90625 429.3125 C 640.808594 446.835938 647.773438 464.328125 654.703125 481.839844 C 657.503906 488.925781 659.542969 496.359375 663.972656 502.714844 C 664.523438 503.5 664.554688 505.074219 665.972656 504.816406 C 667.324219 504.5625 668.316406 503.460938 668.710938 502.191406 C 669.488281 499.679688 670.382812 497.125 670.613281 494.527344 C 671.777344 481.273438 671.351562 468.109375 667.769531 455.179688 C 664.207031 442.324219 658.164062 430.414062 653.71875 417.90625 C 652.285156 413.863281 650.394531 409.871094 650.640625 405.410156 C 651.394531 391.414062 652.40625 377.429688 649.6875 363.496094 C 646.90625 349.214844 642.140625 335.847656 632.664062 324.523438 C 630.710938 322.1875 628.613281 320.273438 625.207031 321.992188 C 620.980469 324.121094 618.574219 327.636719 619.605469 331.222656 C 621.085938 336.402344 622.78125 341.53125 624.675781 346.574219 C 631.296875 364.210938 634.058594 382.160156 629.664062 400 Z M 208.761719 325.066406 C 209.621094 333.933594 211.03125 342.726562 211.382812 351.671875 C 211.699219 359.859375 211.480469 368.023438 211.15625 376.152344 C 210.625 389.238281 208.242188 402 202.617188 414.058594 C 197.640625 424.726562 190.855469 434.089844 183.433594 443.101562 C 173.453125 455.203125 165.851562 468.335938 166.265625 484.707031 C 166.375 489.15625 166.914062 493.597656 167.167969 498.046875 C 167.898438 511.085938 171.351562 523.335938 177.8125 535.449219 C 180.421875 530.292969 181.726562 525.390625 181.566406 520.398438 C 181.246094 510.800781 183.417969 501.484375 184.191406 492.027344 C 185.179688 479.855469 189.75 469.074219 197.492188 459.691406 C 211.796875 442.359375 223.886719 424.015625 227.945312 401.242188 C 230.4375 387.28125 230.601562 373.296875 230.105469 359.285156 C 229.808594 350.859375 228.886719 342.40625 227.046875 334.125 C 225.601562 327.605469 224.265625 321.023438 220.566406 315.261719 C 219.589844 313.738281 218.539062 312.492188 216.398438 313.230469 C 212.320312 314.636719 208.34375 320.765625 208.761719 325.066406 Z M 666.125 240.894531 C 667.292969 251.484375 668.667969 261.984375 668.175781 272.722656 C 667.808594 280.855469 665.859375 288.640625 664.3125 299.050781 C 662.0625 308.984375 661.378906 321.3125 664.421875 333.816406 C 669.707031 355.539062 675.851562 377.042969 681.417969 398.695312 C 684.691406 411.453125 688.644531 423.992188 694.292969 435.929688 C 694.933594 437.28125 695.21875 439.527344 697.054688 439.371094 C 698.863281 439.214844 698.921875 436.785156 699.964844 435.507812 C 700.121094 435.316406 700.136719 435.007812 700.1875 434.753906 C 703.476562 418.117188 704.664062 401.316406 701.023438 384.699219 C 697.40625 368.214844 692.6875 351.96875 688.398438 335.640625 C 685.53125 324.707031 683.027344 313.851562 685.625 302.363281 C 687.1875 295.433594 687.851562 288.269531 688.527344 281.179688 C 689.03125 275.953125 689.191406 270.65625 688.984375 265.40625 C 688.703125 258.113281 688.101562 250.824219 687.003906 243.582031 C 685.472656 233.554688 684.199219 223.5 682.113281 213.539062 C 679.605469 201.601562 673.828125 190.886719 670.152344 179.398438 C 669.320312 176.792969 667.5 176.800781 665.421875 177.457031 C 657.875 179.867188 653.15625 187.917969 655.679688 195.257812 C 660.78125 210.125 664.40625 225.261719 666.125 240.894531 Z M 713.136719 296.773438 C 716.4375 317.816406 719.964844 338.820312 722.914062 359.917969 C 725.8125 380.605469 729.667969 401.15625 731.511719 421.984375 C 732.582031 434.035156 734.472656 445.964844 736.910156 457.78125 C 738.453125 465.269531 737.316406 469.738281 729.730469 474.191406 C 710.507812 485.496094 693.015625 499.519531 675.628906 513.484375 C 651.449219 532.90625 627.632812 552.777344 603.6875 572.492188 C 579.550781 592.375 555.425781 612.269531 531.351562 632.242188 C 525.773438 636.875 520.472656 641.84375 514.992188 646.605469 C 512.84375 648.476562 512.785156 650.617188 513.703125 653.0625 C 515.375 657.515625 519.050781 656.304688 522.109375 655.75 C 528.0625 654.667969 533.050781 651.21875 538.199219 648.296875 C 562.175781 634.683594 583.867188 617.789062 605.578125 600.957031 C 634.390625 578.628906 662.050781 554.847656 690.707031 532.324219 C 708.203125 518.570312 724.65625 503.359375 744.234375 492.359375 C 748.6875 489.855469 750.34375 485.726562 750.230469 482.152344 C 750.882812 477.019531 751.6875 473.214844 750.625 469.402344 C 748.582031 462.039062 749.273438 454.429688 749.730469 447.097656 C 750.4375 435.625 749.054688 424.359375 748.398438 413.019531 C 747.832031 403.273438 746.769531 393.546875 745.882812 383.820312 C 745.117188 375.382812 744.476562 366.929688 743.464844 358.523438 C 742.125 347.425781 740.496094 336.359375 738.960938 325.289062 C 737.082031 311.757812 735.285156 298.210938 733.21875 284.710938 C 731.445312 273.136719 729.273438 261.621094 727.402344 250.054688 C 725.082031 235.660156 723.160156 221.199219 720.5625 206.863281 C 717.226562 188.371094 713.691406 169.917969 709.648438 151.5625 C 703.71875 124.640625 697.9375 97.691406 691.757812 70.824219 C 688.542969 56.839844 682.308594 45.34375 670.542969 37.027344 C 666.15625 33.921875 661.5 34.984375 657.46875 39.953125 C 655 43 655.421875 44.582031 659.867188 48.867188 C 660.152344 49.140625 660.484375 49.371094 660.734375 49.679688 C 663.8125 53.445312 667.816406 56.785156 669.117188 61.542969 C 671.609375 70.660156 673.617188 79.925781 675.496094 89.191406 C 679.53125 109.152344 683.207031 129.191406 687.316406 149.136719 C 692.523438 174.386719 697.570312 199.660156 701.8125 225.085938 C 705.800781 248.949219 709.394531 272.871094 713.136719 296.773438 Z M 316.1875 719.578125 C 307.019531 718.238281 297.894531 715.75 288.925781 713.203125 C 277.824219 710.046875 266.589844 707.355469 255.652344 703.582031 C 248.96875 701.285156 242.023438 699.75 235.265625 697.648438 C 229.144531 695.746094 223.109375 693.5625 217.054688 691.472656 C 209.761719 688.960938 202.457031 686.472656 195.199219 683.871094 C 186.589844 680.78125 177.925781 677.84375 169.488281 674.34375 C 159.867188 670.359375 150.28125 666.246094 141.160156 661.164062 C 135.335938 657.921875 129.507812 654.679688 123.871094 651.136719 C 120.96875 649.3125 118.09375 647.769531 114.835938 646.578125 C 108.222656 644.152344 104.90625 638.183594 101.757812 632.402344 C 97.550781 624.640625 97.035156 616.054688 96.988281 607.46875 C 96.921875 595.011719 98.402344 582.660156 100.785156 570.480469 C 103.515625 556.5 106.960938 542.65625 110.140625 528.765625 C 112.738281 517.441406 115.425781 506.144531 118.035156 494.820312 C 120.78125 482.859375 123.199219 470.808594 126.304688 458.9375 C 128.753906 449.542969 129.960938 439.992188 131.121094 430.433594 C 135.460938 394.863281 142.128906 359.679688 148.964844 324.539062 C 153.636719 300.566406 158.375 276.597656 163.101562 252.632812 C 166.863281 233.589844 170.710938 214.550781 175.1875 195.667969 C 179.082031 179.261719 183.121094 162.867188 188.273438 146.777344 C 189.679688 142.390625 190.808594 137.90625 191.789062 133.40625 C 192.464844 130.304688 193.71875 130.15625 196.136719 131.71875 C 199.375 133.824219 201.730469 136.585938 202.886719 140.234375 C 204.566406 145.515625 206.082031 150.847656 207.636719 156.171875 C 208.34375 158.589844 207.25 160.863281 206.933594 163.195312 C 206.261719 168.167969 205.554688 173.140625 204.863281 178.109375 C 202.675781 194.753906 198.789062 211.058594 195.394531 227.464844 C 193.445312 236.886719 191.492188 246.347656 190.019531 255.832031 C 188.535156 265.382812 186.03125 274.6875 184.496094 284.199219 C 184.160156 286.285156 184.203125 288.214844 184.929688 290.351562 C 186.292969 294.375 185.144531 298.453125 184.101562 302.429688 C 183.695312 303.960938 182.96875 305.441406 182.804688 306.992188 C 181.035156 323.699219 176.695312 339.960938 174.28125 356.566406 C 172.023438 372.085938 168.65625 387.441406 165.613281 402.839844 C 163.746094 412.273438 161.511719 421.640625 159.820312 431.117188 C 158.371094 439.285156 156.265625 447.335938 154.460938 455.441406 C 152.578125 463.933594 150.898438 472.476562 148.785156 480.910156 C 146.582031 489.730469 145.289062 498.738281 142.691406 507.480469 C 141.089844 512.894531 140.355469 518.53125 138.929688 524.035156 C 135.6875 536.523438 133.84375 549.378906 130.480469 561.824219 C 126.429688 576.84375 125.015625 592.210938 122.964844 607.503906 C 121.8125 616.152344 121.058594 624.847656 125.410156 632.996094 C 125.992188 634.078125 126.128906 635.300781 128.082031 635.242188 C 137.472656 634.957031 146.339844 637.878906 155.183594 640.449219 C 167.316406 643.957031 179.324219 647.921875 191.347656 651.804688 C 202.367188 655.363281 213.316406 659.148438 224.34375 662.691406 C 233.609375 665.660156 242.941406 668.445312 252.246094 671.28125 C 261.570312 674.125 270.875 677 280.226562 679.722656 C 288.835938 682.226562 297.449219 684.710938 306.136719 686.910156 C 323.777344 691.371094 341.507812 695.5 359.128906 700.042969 C 368.785156 702.527344 375.804688 712.480469 375.808594 722.613281 C 375.800781 724.898438 375.101562 726.671875 372.851562 727.113281 C 369.808594 727.707031 366.890625 728.726562 363.597656 728.34375 C 347.597656 726.484375 332.121094 721.910156 316.1875 719.578125 " fill-opacity="1" fill-rule="nonzero"/></g></g></g></g></g></svg>